PathFileType	4	(X/Y/Z)	C:\Documents and Settings\rtobon\Desktop\NewMocap\New\NoT\ActorF_TPose.trc
DataRate	CameraRate	NumFrames	NumMarkers	Units	OrigDataRate	OrigDataStartFrame	OrigNumFrames
120.00	120.00	       7	49	mm	120.00	228	       260
Frame#	Time	Root			LtFtHip			LtBkHip			RtFtHip			RtBkHip			Spine1			Spine2			Spine3			SpineOffsetLow			SpineOffsetHigh			LtCtChest			RtCtChest			LtChest			RtChest			LtShoulder			LtBicep			LtElbow			LtForeArm			LtWrist			LtPinky			LtThumb			LtMiddFing			RtShoulder			RtBicep			RtElbow			RtForeArm			RtWrist			RtPinky			RtThumb			RtMiddFing			LtThigh			LtKnee			LtCalf			LtAnkle			LtHeel			LtBall			LtToe			RtThigh			RtKnee			RtCalf			RtAnkle			RtHeel			RtBall			RtToe			TopHead			LfFtHead			LtBkHead			RtFtHead			RtBkHead			
		X1	Y1	Z1	X2	Y2	Z2	X3	Y3	Z3	X4	Y4	Z4	X5	Y5	Z5	X6	Y6	Z6	X7	Y7	Z7	X8	Y8	Z8	X9	Y9	Z9	X10	Y10	Z10	X11	Y11	Z11	X12	Y12	Z12	X13	Y13	Z13	X14	Y14	Z14	X15	Y15	Z15	X16	Y16	Z16	X17	Y17	Z17	X18	Y18	Z18	X19	Y19	Z19	X20	Y20	Z20	X21	Y21	Z21	X22	Y22	Z22	X23	Y23	Z23	X24	Y24	Z24	X25	Y25	Z25	X26	Y26	Z26	X27	Y27	Z27	X28	Y28	Z28	X29	Y29	Z29	X30	Y30	Z30	X31	Y31	Z31	X32	Y32	Z32	X33	Y33	Z33	X34	Y34	Z34	X35	Y35	Z35	X36	Y36	Z36	X37	Y37	Z37	X38	Y38	Z38	X39	Y39	Z39	X40	Y40	Z40	X41	Y41	Z41	X42	Y42	Z42	X43	Y43	Z43	X44	Y44	Z44	X45	Y45	Z45	X46	Y46	Z46	X47	Y47	Z47	X48	Y48	Z48	X49	Y49	Z49	

228	1.892	7.70454	1104.20276	1290.50354	106.10545	1008.10889	1567.40808	103.60568	1071.04309	1290.16321	-164.88997	1028.03845	1540.79199	-120.32244	1069.96606	1277.27087	9.18114	1277.43726	1285.61060	8.81622	1412.64490	1292.63269	-0.98169	1530.29211	1348.15930	-74.53417	1198.29211	1285.81860	137.52641	1358.41687	1293.40808	14.93939	1372.85767	1602.01172	-34.34863	1398.07678	1590.33240	95.86684	1448.95874	1575.48779	-106.44061	1446.74976	1569.02368	157.54582	1544.42847	1409.85449	330.49646	1519.94519	1444.10828	482.82104	1498.74377	1411.38538	591.82831	1491.61877	1461.07507	727.93311	1472.60315	1481.27844	782.35785	1418.75403	1444.48218	754.32794	1449.49683	1554.78149	785.75195	1469.04785	1485.86719	-175.24287	1550.02576	1445.06921	-352.87909	1498.58521	1426.56824	-455.34286	1480.64648	1413.77002	-603.88098	1461.89954	1458.67310	-719.26428	1443.00317	1472.15552	-782.43121	1393.27478	1448.85266	-763.53485	1437.25110	1548.29834	-792.59448	1443.59229	1483.30225	211.25352	738.49194	1469.18945	201.00061	578.43158	1418.76270	223.36284	338.31360	1349.81873	199.77757	148.29497	1340.51782	132.45712	51.41201	1270.18860	222.41258	54.88767	1444.23169	173.24393	46.41797	1542.75269	-258.74750	776.41132	1464.13757	-251.30164	550.69427	1439.00708	-273.24387	402.85306	1380.54553	-248.73233	151.44019	1352.29089	-173.75351	52.52573	1263.97742	-276.99249	53.17577	1437.83789	-222.08139	54.22070	1529.34375	-22.22588	1780.46228	1476.83545	49.48286	1713.68042	1603.07202	62.96066	1655.30750	1424.52661	-73.14804	1701.65247	1594.70728	-85.71363	1637.93347	1422.08838	
229	1.900	7.47925	1104.21533	1290.57410	105.85844	1008.04095	1567.79688	103.60568	1071.04309	1290.16321	-165.09149	1027.88220	1540.97852	-120.32244	1069.96606	1277.27087	8.82673	1277.46704	1285.87463	8.74601	1412.64648	1292.78601	-1.23560	1530.33582	1348.55261	-74.67635	1198.15173	1286.03687	137.19495	1358.33655	1293.56860	14.82210	1372.84924	1602.18738	-34.39938	1398.15601	1590.41968	95.75639	1449.03772	1575.59143	-106.61986	1446.63025	1569.46204	157.22365	1544.45410	1410.09375	330.23358	1520.11108	1444.24670	482.70880	1498.96948	1411.41614	591.57483	1491.66980	1460.88367	727.72198	1472.82800	1480.92664	782.31946	1418.77209	1444.50244	754.10443	1449.61182	1554.60583	785.77576	1469.16406	1485.81702	-175.30006	1549.77307	1445.13782	-353.18140	1498.42615	1427.03076	-455.39676	1480.60571	1414.10156	-604.09711	1461.64172	1459.30908	-719.47473	1442.92603	1472.48901	-782.65356	1393.14246	1449.28772	-763.61096	1437.12073	1548.39380	-792.80688	1443.35620	1483.66138	211.19479	738.47815	1469.32031	200.64645	578.38129	1418.97510	223.31096	338.40878	1349.89465	199.76250	148.48735	1340.54333	132.40207	51.44333	1270.19165	222.40860	54.84901	1444.17920	173.15279	46.39659	1542.72583	-258.78171	776.47296	1464.30652	-251.24304	550.65161	1438.74231	-273.24387	402.85306	1380.54553	-248.84540	151.56610	1352.54456	-173.75351	52.52573	1263.97742	-276.92334	53.21458	1437.84351	-222.08139	54.22070	1529.34375	-22.47631	1780.37146	1477.01672	49.22784	1713.54553	1603.36487	62.78300	1655.45203	1425.15613	-73.13563	1701.66589	1594.79932	-86.02866	1637.77405	1422.33191	
230	1.908	7.31071	1104.04224	1291.28687	105.81393	1008.16028	1567.92615	103.10213	1071.00439	1290.39539	-165.06877	1027.93323	1541.32788	-120.38998	1070.11035	1277.33020	8.82673	1277.46704	1285.87463	8.65614	1412.56592	1292.90112	-1.73857	1530.37708	1348.75122	-75.13634	1198.37134	1286.20081	137.02847	1358.43665	1293.68091	14.04020	1370.73535	1601.82556	-34.57365	1398.07251	1590.69214	95.55317	1449.15576	1576.18103	-106.73544	1446.43689	1569.58435	157.15489	1544.45068	1410.24902	329.87524	1520.10095	1444.29297	482.54169	1498.92822	1410.98914	589.84479	1488.68689	1461.39722	728.50543	1471.63782	1483.21045	782.21405	1418.92419	1444.33545	754.02924	1449.66638	1554.28052	785.66638	1469.21960	1485.66431	-175.47781	1549.70837	1445.35828	-353.14676	1498.37878	1427.30457	-455.44849	1480.46094	1414.37109	-604.42603	1461.56165	1459.85437	-719.66504	1442.84619	1472.75708	-782.91736	1393.01001	1450.13147	-763.71875	1436.98718	1548.89539	-793.00238	1443.36108	1484.04956	211.02295	738.75671	1469.76404	200.67340	578.50720	1419.23621	223.30939	338.49115	1350.02637	199.69780	148.45677	1340.64819	132.23547	51.62521	1270.26270	222.34128	54.89208	1444.16614	173.24393	46.41797	1542.75269	-258.89880	776.44360	1464.60999	-251.32669	550.82471	1439.07214	-273.32294	402.88107	1380.54163	-248.80267	151.64548	1352.50598	-173.75351	52.52573	1263.97742	-276.99249	53.17577	1437.83789	-222.08139	54.22070	1529.34375	-22.71813	1780.38513	1477.16077	48.93640	1713.53174	1603.57666	62.71938	1655.40186	1425.28748	-73.24180	1701.61487	1595.02429	-86.33743	1637.81018	1422.45496	
231	1.917	7.36970	1103.76514	1291.97009	105.76507	1008.16907	1567.95398	103.15678	1070.86584	1290.98950	-165.15849	1028.04431	1541.56580	-120.60887	1070.13110	1277.52783	8.73000	1277.56555	1286.12708	8.36176	1412.47192	1293.03308	-1.81605	1530.46375	1348.92688	-75.31027	1198.21411	1286.83545	136.97327	1358.39026	1294.07800	13.88476	1370.69336	1601.98572	-35.03238	1398.01807	1591.09180	95.40741	1448.96790	1576.24207	-106.97622	1446.33093	1569.72021	157.07898	1544.50378	1410.34619	329.73502	1520.24146	1444.51978	482.43716	1499.01428	1410.92908	589.52637	1489.00354	1461.32788	727.48218	1473.13708	1480.48303	781.78113	1419.03259	1443.86523	753.99225	1449.68018	1554.24646	785.62683	1469.38782	1485.27917	-175.87065	1549.64050	1445.74512	-353.44839	1498.28271	1427.78418	-455.67413	1480.42529	1414.81543	-604.51849	1461.46802	1459.88623	-719.68176	1442.71057	1473.35571	-783.16821	1393.15063	1450.51270	-763.86188	1436.96912	1549.20593	-793.12158	1443.20947	1484.46582	210.98701	738.72180	1469.94495	200.63786	578.44025	1419.61023	223.28918	338.45178	1350.10229	199.69780	148.45677	1340.64819	132.13498	51.66020	1270.31372	222.38396	54.83998	1444.30249	173.24393	46.41797	1542.75269	-258.81723	776.32886	1464.79565	-251.38513	550.62360	1439.10364	-273.31458	402.94952	1380.73645	-248.68961	151.51956	1352.25244	-173.75351	52.52573	1263.97742	-276.99249	53.17577	1437.83789	-222.08139	54.22070	1529.34375	-23.22483	1780.23853	1477.31226	48.84388	1713.56860	1603.66199	62.28975	1655.56470	1425.53479	-73.42919	1701.42908	1595.64050	-86.90350	1637.82239	1422.89270	
232	1.925	6.78035	1104.13196	1292.49292	105.57948	1008.17725	1568.25464	103.01398	1070.88269	1291.21021	-165.14682	1028.04688	1541.64795	-120.65711	1070.02148	1277.86475	8.58072	1277.59790	1286.65552	8.07412	1412.48071	1293.44946	-1.99023	1530.41833	1349.06433	-75.40903	1198.21252	1287.02405	136.97327	1358.39026	1294.07800	13.85476	1370.73633	1602.12378	-35.22263	1397.97192	1591.17700	95.35562	1448.89050	1576.29810	-107.07565	1446.52856	1570.08936	156.78236	1544.44373	1410.42957	329.65042	1520.28101	1444.45117	482.32047	1499.11438	1410.81787	589.46112	1489.17224	1461.18188	727.49304	1473.20886	1480.32104	781.49567	1419.09143	1443.77905	753.80139	1449.94995	1554.02771	785.59338	1469.52161	1485.22534	-175.85941	1549.71118	1446.17346	-353.56396	1498.21350	1428.16846	-456.09109	1480.17371	1415.07007	-604.64478	1461.23621	1460.00208	-719.83533	1442.58777	1473.78076	-783.45752	1392.93799	1450.93384	-763.87195	1436.75183	1549.82922	-793.14569	1443.20044	1484.63647	210.95003	738.62946	1470.09167	200.58710	578.48187	1419.85034	223.26001	338.44577	1350.23291	199.63647	148.44562	1340.67053	132.02634	51.82455	1270.49536	222.40181	54.82639	1444.23962	173.15279	46.39659	1542.72583	-258.88904	776.27106	1465.22729	-251.54362	550.76892	1439.42676	-273.43674	402.95676	1380.87476	-248.74297	151.50070	1352.63940	-173.71823	52.54195	1263.94202	-276.99249	53.17577	1437.83789	-222.08139	54.22070	1529.34375	-23.49341	1780.34961	1477.60022	48.75791	1713.53650	1603.84485	62.09300	1655.69080	1425.73645	-73.56011	1701.26660	1595.62915	-86.97491	1637.78320	1423.13599	
233	1.933	6.77217	1104.10205	1292.21509	105.36734	1008.13489	1568.46936	102.80772	1070.62463	1291.17957	-165.20619	1028.06970	1541.67566	-120.60902	1069.91724	1278.41260	8.51464	1277.62427	1287.16284	7.80953	1412.48682	1293.45300	-2.26861	1530.39478	1349.29724	-75.52722	1198.16003	1287.42773	136.98669	1358.43726	1294.19299	13.64960	1370.69226	1602.28931	-35.35288	1397.99036	1591.33740	95.34316	1448.78430	1576.41418	-107.23428	1446.38782	1570.16785	156.64937	1544.47961	1410.63538	329.24680	1520.45667	1444.43823	482.16110	1499.16931	1410.96729	589.39319	1489.32434	1461.18433	727.20123	1473.56714	1479.88586	781.40448	1419.09851	1443.60388	753.60687	1450.20825	1553.63953	785.27960	1469.80188	1485.01270	-175.99774	1549.57275	1446.56812	-353.75238	1498.13904	1428.56494	-456.32211	1480.11072	1415.27087	-604.65588	1461.14185	1460.25208	-719.97693	1442.73438	1474.33313	-783.46631	1392.95325	1451.08508	-763.82684	1436.76685	1550.14404	-793.16235	1443.18530	1484.91443	210.95003	738.62946	1470.09167	200.35532	578.74786	1420.08167	223.20920	338.38727	1350.34558	199.65874	148.49759	1340.60547	132.02380	51.87553	1270.43164	222.37801	54.88306	1444.25586	173.24393	46.41797	1542.75269	-259.00580	776.38910	1465.83398	-251.49820	550.73840	1439.48340	-273.43674	402.95676	1380.87476	-248.80267	151.64548	1352.50598	-173.79463	52.58619	1263.94812	-276.92334	53.21458	1437.84351	-222.08139	54.22070	1529.34375	-23.60533	1780.36023	1477.81580	48.36172	1713.54224	1603.89954	61.87216	1655.59058	1426.14758	-73.63821	1701.21680	1595.84180	-87.16120	1637.83337	1423.22485	
234	1.942	6.64198	1104.21509	1292.18982	105.27799	1008.16089	1568.70288	102.69461	1070.92761	1291.50806	-165.34207	1028.19153	1541.89539	-120.75948	1069.96130	1278.84387	8.37317	1277.38269	1287.95020	7.72395	1412.46973	1293.62122	-2.35922	1530.26318	1349.66406	-75.40599	1197.97827	1287.90967	136.96074	1358.37830	1294.39563	13.49253	1370.55713	1602.42810	-35.46344	1397.93884	1591.52258	95.29278	1448.79956	1576.59656	-107.29465	1446.08899	1570.09229	156.56590	1544.49658	1410.72375	329.21027	1520.50366	1444.61255	481.89056	1499.25439	1411.14771	589.37109	1489.35864	1461.15637	727.06158	1473.70264	1479.69043	781.40015	1419.14111	1443.55359	753.69257	1450.56531	1553.60913	785.28845	1470.18970	1484.39563	-176.15599	1549.55322	1446.93933	-353.80280	1498.06299	1428.77039	-456.37195	1479.95190	1415.62439	-604.76624	1461.11072	1460.45923	-720.05090	1442.69934	1474.57642	-783.37256	1392.76465	1451.41589	-763.84601	1436.50208	1550.29724	-793.27087	1443.11975	1485.31763	210.83131	738.67230	1470.25610	200.33629	578.42828	1420.37683	223.17981	338.28818	1350.50378	199.63647	148.44562	1340.67053	132.02380	51.87553	1270.43164	222.34128	54.89208	1444.16614	173.24211	46.37641	1542.81348	-259.12048	776.27045	1465.85498	-251.49570	550.87811	1439.58643	-273.80853	403.33139	1381.03223	-248.80267	151.64548	1352.50598	-173.76077	52.67705	1263.87598	-276.92334	53.21458	1437.84351	-222.08139	54.22070	1529.34375	-24.11738	1780.36389	1478.06030	48.24358	1713.58008	1604.09485	61.51238	1655.61670	1426.25574	-73.93163	1701.32642	1596.45569	-87.58910	1637.85840	1423.88721	
